{
  "accessors": [
    {
      "bufferView": 0,
      "componentType": 5125,
      "count": 19368,
      "type": "SCALAR"
    },
    {
      "bufferView": 1,
      "componentType": 5126,
      "count": 3389,
      "max": [
        17.669506072998,
        17.92551612854,
        18.5642280578613
      ],
      "min": [
        -17.6660175323486,
        -22.6640529632568,
        -22.128776550293
      ],
      "type": "VEC3"
    },
    {
      "bufferView": 2,
      "componentType": 5126,
      "count": 3389,
      "type": "VEC3"
    },
    {
      "bufferView": 3,
      "componentType": 5126,
      "count": 3389,
      "type": "VEC4"
    },
    {
      "bufferView": 4,
      "componentType": 5126,
      "count": 3389,
      "type": "VEC2"
    }
  ],
  "asset": {
    "generator": "Adobe Substance 3D Painter 8.1.0",
    "version": "2.0"
  },
  "bufferViews": [
    {
      "buffer": 0,
      "byteLength": 77472,
      "target": 34963
    },
    {
      "buffer": 0,
      "byteLength": 40668,
      "byteOffset": 77472,
      "target": 34962
    },
    {
      "buffer": 0,
      "byteLength": 40668,
      "byteOffset": 118140,
      "target": 34962
    },
    {
      "buffer": 0,
      "byteLength": 54224,
      "byteOffset": 158808,
      "target": 34962
    },
    {
      "buffer": 0,
      "byteLength": 27112,
      "byteOffset": 213032,
      "target": 34962
    }
  ],
  "buffers": [
    {
      "byteLength": 240144,
      "uri": "scene.bin"
    }
  ],
  "images": [
    {
      "uri": "textures/Toad_baseColor.png"
    },
    {
      "uri": "textures/Toad_occlusionRoughnessMetallic.png"
    },
    {
      "uri": "textures/Toad_normal.png"
    }
  ],
  "materials": [
    {
      "alphaMode": "OPAQUE",
      "name": "Toad",
      "normalTexture": {
        "index": 2
      },
      "occlusionTexture": {
        "index": 1
      },
      "pbrMetallicRoughness": {
        "baseColorTexture": {
          "index": 0
        },
        "metallicRoughnessTexture": {
          "index": 1
        }
      }
    }
  ],
  "meshes": [
    {
      "name": "Toad_Final_Low:Group28800",
      "primitives": [
        {
          "attributes": {
            "NORMAL": 2,
            "POSITION": 1,
            "TANGENT": 3,
            "TEXCOORD_0": 4
          },
          "indices": 0,
          "material": 0,
          "mode": 4
        }
      ]
    }
  ],
  "nodes": [
    {
      "children": [
        1
      ],
      "name": "Toad_Final_Scale_Low.obj"
    },
    {
      "children": [
        2
      ],
      "name": "g Toad_Final_Low:Group28800"
    },
    {
      "mesh": 0,
      "name": "Toad_Final_Low:Group28800"
    }
  ],
  "samplers": [
    {
      "magFilter": 9729,
      "minFilter": 9985,
      "wrapS": 10497,
      "wrapT": 10497
    }
  ],
  "scene": 0,
  "scenes": [
    {
      "name": "Scene",
      "nodes": [
        0
      ]
    }
  ],
  "textures": [
    {
      "sampler": 0,
      "source": 0
    },
    {
      "sampler": 0,
      "source": 1
    },
    {
      "sampler": 0,
      "source": 2
    }
  ]
}