{
  "accessors": [
    {
      "bufferView": 2,
      "componentType": 5126,
      "count": 588,
      "max": [
        0.6680300235748291,
        -0.9096149802207947,
        0.6680300235748291
      ],
      "min": [
        -0.6680309772491455,
        -1.0,
        -0.6680309772491455
      ],
      "type": "VEC3"
    },
    {
      "bufferView": 2,
      "byteOffset": 7056,
      "componentType": 5126,
      "count": 588,
      "max": [
        0.9985413551330566,
        1.0,
        0.9985415935516357
      ],
      "min": [
        -0.9985414743423462,
        -0.9973254799842834,
        -0.9985416531562805
      ],
      "type": "VEC3"
    },
    {
      "bufferView": 3,
      "componentType": 5126,
      "count": 588,
      "max": [
        0.9999210834503174,
        0.3176521956920624,
        0.9999939799308777,
        1.0
      ],
      "min": [
        -0.9999155402183533,
        -0.3173905611038208,
        -0.9999967217445374,
        1.0
      ],
      "type": "VEC4"
    },
    {
      "bufferView": 1,
      "componentType": 5126,
      "count": 588,
      "max": [
        0.8210790157318115,
        0.686942994594574
      ],
      "min": [
        0.4318700134754181,
        0.6022520065307617
      ],
      "type": "VEC2"
    },
    {
      "bufferView": 0,
      "componentType": 5125,
      "count": 2400,
      "type": "SCALAR"
    },
    {
      "bufferView": 2,
      "byteOffset": 14112,
      "componentType": 5126,
      "count": 101,
      "max": [
        0.059617698192596436,
        1.0,
        -0.41189301013946533
      ],
      "min": [
        -0.059617698192596436,
        0.8775839805603027,
        -0.531129002571106
      ],
      "type": "VEC3"
    },
    {
      "bufferView": 2,
      "byteOffset": 15324,
      "componentType": 5126,
      "count": 101,
      "max": [
        0.9950496554374695,
        1.0,
        0.9950496554374695
      ],
      "min": [
        -0.9950496554374695,
        -0.13243402540683746,
        -0.9950496554374695
      ],
      "type": "VEC3"
    },
    {
      "bufferView": 3,
      "byteOffset": 9408,
      "componentType": 5126,
      "count": 101,
      "max": [
        1.0,
        0.9917875528335571,
        0.9793768525123596,
        1.0
      ],
      "min": [
        -1.0,
        -0.9917852282524109,
        -0.9792980551719666,
        1.0
      ],
      "type": "VEC4"
    },
    {
      "bufferView": 1,
      "byteOffset": 4704,
      "componentType": 5126,
      "count": 101,
      "max": [
        0.9253060221672058,
        0.025658100843429565
      ],
      "min": [
        0.8249040246009827,
        0.0009765619761310518
      ],
      "type": "VEC2"
    },
    {
      "bufferView": 0,
      "byteOffset": 9600,
      "componentType": 5125,
      "count": 336,
      "type": "SCALAR"
    },
    {
      "bufferView": 2,
      "byteOffset": 16536,
      "componentType": 5126,
      "count": 504,
      "max": [
        0.7379699945449829,
        -0.2656159996986389,
        0.7379699945449829
      ],
      "min": [
        -0.7379699945449829,
        -0.37732699513435364,
        -0.7379699945449829
      ],
      "type": "VEC3"
    },
    {
      "bufferView": 2,
      "byteOffset": 22584,
      "componentType": 5126,
      "count": 504,
      "max": [
        0.9984169006347656,
        0.951417863368988,
        0.9984169006347656
      ],
      "min": [
        -0.9984170198440552,
        -0.9611929059028625,
        -0.9984170198440552
      ],
      "type": "VEC3"
    },
    {
      "bufferView": 3,
      "byteOffset": 11024,
      "componentType": 5126,
      "count": 504,
      "max": [
        1.0,
        0.03836689889431,
        1.0,
        1.0
      ],
      "min": [
        -1.0,
        -0.0383683480322361,
        -1.0,
        1.0
      ],
      "type": "VEC4"
    },
    {
      "bufferView": 1,
      "byteOffset": 5512,
      "componentType": 5126,
      "count": 504,
      "max": [
        0.8569679856300354,
        0.9357230067253113
      ],
      "min": [
        0.0023324498906731606,
        0.7963129878044128
      ],
      "type": "VEC2"
    },
    {
      "bufferView": 0,
      "byteOffset": 10944,
      "componentType": 5125,
      "count": 1920,
      "type": "SCALAR"
    },
    {
      "bufferView": 2,
      "byteOffset": 28632,
      "componentType": 5126,
      "count": 504,
      "max": [
        0.7379699945449829,
        0.30719199776649475,
        0.7379699945449829
      ],
      "min": [
        -0.7379699945449829,
        0.19548100233078003,
        -0.7379699945449829
      ],
      "type": "VEC3"
    },
    {
      "bufferView": 2,
      "byteOffset": 34680,
      "componentType": 5126,
      "count": 504,
      "max": [
        0.9984170198440552,
        0.9611930251121521,
        0.9984169006347656
      ],
      "min": [
        -0.9984169006347656,
        -0.9514191150665283,
        -0.9984169006347656
      ],
      "type": "VEC3"
    },
    {
      "bufferView": 3,
      "byteOffset": 19088,
      "componentType": 5126,
      "count": 504,
      "max": [
        1.0,
        0.03836775943636894,
        1.0,
        1.0
      ],
      "min": [
        -1.0,
        -0.038367483764886856,
        -1.0,
        1.0
      ],
      "type": "VEC4"
    },
    {
      "bufferView": 1,
      "byteOffset": 9544,
      "componentType": 5126,
      "count": 504,
      "max": [
        0.7803919911384583,
        0.9576690196990967
      ],
      "min": [
        0.0023324498906731606,
        0.7714859843254089
      ],
      "type": "VEC2"
    },
    {
      "bufferView": 0,
      "byteOffset": 18624,
      "componentType": 5125,
      "count": 1920,
      "type": "SCALAR"
    },
    {
      "bufferView": 2,
      "byteOffset": 40728,
      "componentType": 5126,
      "count": 504,
      "max": [
        0.7083309888839722,
        -0.5949919819831848,
        0.7083309888839722
      ],
      "min": [
        -0.7083309888839722,
        -0.7022169828414917,
        -0.7083309888839722
      ],
      "type": "VEC3"
    },
    {
      "bufferView": 2,
      "byteOffset": 46776,
      "componentType": 5126,
      "count": 504,
      "max": [
        0.9984169006347656,
        0.9514074921607971,
        0.9984169006347656
      ],
      "min": [
        -0.9984169006347656,
        -0.9612106680870056,
        -0.9984170198440552
      ],
      "type": "VEC3"
    },
    {
      "bufferView": 3,
      "byteOffset": 27152,
      "componentType": 5126,
      "count": 504,
      "max": [
        1.0,
        0.03836968168616295,
        1.0,
        1.0
      ],
      "min": [
        -1.0,
        -0.03836892172694206,
        -1.0,
        1.0
      ],
      "type": "VEC4"
    },
    {
      "bufferView": 1,
      "byteOffset": 13576,
      "componentType": 5126,
      "count": 504,
      "max": [
        0.8513969779014587,
        0.9990230202674866
      ],
      "min": [
        0.0023324498906731606,
        0.8450049757957458
      ],
      "type": "VEC2"
    },
    {
      "bufferView": 0,
      "byteOffset": 26304,
      "componentType": 5125,
      "count": 1920,
      "type": "SCALAR"
    },
    {
      "bufferView": 2,
      "byteOffset": 52824,
      "componentType": 5126,
      "count": 504,
      "max": [
        0.7083309888839722,
        0.6483340263366699,
        0.7083309888839722
      ],
      "min": [
        -0.7083309888839722,
        0.5411099791526794,
        -0.7083309888839722
      ],
      "type": "VEC3"
    },
    {
      "bufferView": 2,
      "byteOffset": 58872,
      "componentType": 5126,
      "count": 504,
      "max": [
        0.9984169006347656,
        0.9612105488777161,
        0.9984169006347656
      ],
      "min": [
        -0.9984169006347656,
        -0.9514075517654419,
        -0.9984170198440552
      ],
      "type": "VEC3"
    },
    {
      "bufferView": 3,
      "byteOffset": 35216,
      "componentType": 5126,
      "count": 504,
      "max": [
        1.0,
        0.03836965560913086,
        1.0,
        1.0
      ],
      "min": [
        -1.0,
        -0.03836715593934059,
        -1.0,
        1.0
      ],
      "type": "VEC4"
    },
    {
      "bufferView": 1,
      "byteOffset": 17608,
      "componentType": 5126,
      "count": 504,
      "max": [
        0.8515059947967529,
        0.9787690043449402
      ],
      "min": [
        0.002332570031285286,
        0.8211399912834167
      ],
      "type": "VEC2"
    },
    {
      "bufferView": 0,
      "byteOffset": 33984,
      "componentType": 5125,
      "count": 1920,
      "type": "SCALAR"
    },
    {
      "bufferView": 2,
      "byteOffset": 64920,
      "componentType": 5126,
      "count": 588,
      "max": [
        0.6680300235748291,
        0.9473099708557129,
        0.6680300235748291
      ],
      "min": [
        -0.6680309772491455,
        0.8569239974021912,
        -0.6680309772491455
      ],
      "type": "VEC3"
    },
    {
      "bufferView": 2,
      "byteOffset": 71976,
      "componentType": 5126,
      "count": 588,
      "max": [
        0.9985413551330566,
        0.9973254799842834,
        0.9985416531562805
      ],
      "min": [
        -0.9985414743423462,
        -1.0,
        -0.9985415935516357
      ],
      "type": "VEC3"
    },
    {
      "bufferView": 3,
      "byteOffset": 43280,
      "componentType": 5126,
      "count": 588,
      "max": [
        0.9997195601463318,
        0.313519150018692,
        0.9999298453330994,
        1.0
      ],
      "min": [
        -0.9997252821922302,
        -0.3129294514656067,
        -0.9999211430549622,
        1.0
      ],
      "type": "VEC4"
    },
    {
      "bufferView": 1,
      "byteOffset": 21640,
      "componentType": 5126,
      "count": 588,
      "max": [
        0.7562639713287354,
        0.7705850005149841
      ],
      "min": [
        0.36696600914001465,
        0.6862720251083374
      ],
      "type": "VEC2"
    },
    {
      "bufferView": 0,
      "byteOffset": 41664,
      "componentType": 5125,
      "count": 2400,
      "type": "SCALAR"
    },
    {
      "bufferView": 2,
      "byteOffset": 79032,
      "componentType": 5126,
      "count": 391,
      "max": [
        0.7305709719657898,
        0.9385730028152466,
        0.7305709719657898
      ],
      "min": [
        -0.7305709719657898,
        -0.9955059885978699,
        -0.730571985244751
      ],
      "type": "VEC3"
    },
    {
      "bufferView": 2,
      "byteOffset": 83724,
      "componentType": 5126,
      "count": 391,
      "max": [
        1.0,
        1.0,
        1.0
      ],
      "min": [
        -1.0,
        -1.0,
        -1.0
      ],
      "type": "VEC3"
    },
    {
      "bufferView": 3,
      "byteOffset": 52688,
      "componentType": 5126,
      "count": 391,
      "max": [
        1.0,
        0.9987573027610779,
        1.0,
        1.0
      ],
      "min": [
        -1.0,
        -0.9937543869018555,
        -1.0,
        1.0
      ],
      "type": "VEC4"
    },
    {
      "bufferView": 1,
      "byteOffset": 26344,
      "componentType": 5126,
      "count": 391,
      "max": [
        0.8219509720802307,
        0.8188070058822632
      ],
      "min": [
        0.0009765629656612873,
        0.0009765629656612873
      ],
      "type": "VEC2"
    },
    {
      "bufferView": 0,
      "byteOffset": 51264,
      "componentType": 5125,
      "count": 1560,
      "type": "SCALAR"
    }
  ],
  "asset": {
    "extras": {
      "author": "NeverSleep (https://sketchfab.com/neversleep)",
      "license": "CC-BY-4.0 (http://creativecommons.org/licenses/by/4.0/)",
      "source": "https://sketchfab.com/3d-models/old-barrel-free-download-5dab1dc5474b4bfc8a6f284fe25ab40b",
      "title": "Old Barrel (Free Download)"
    },
    "generator": "Sketchfab-12.67.0",
    "version": "2.0"
  },
  "bufferViews": [
    {
      "buffer": 0,
      "byteLength": 57504,
      "name": "floatBufferViews",
      "target": 34963
    },
    {
      "buffer": 0,
      "byteLength": 29472,
      "byteOffset": 57504,
      "byteStride": 8,
      "name": "floatBufferViews",
      "target": 34962
    },
    {
      "buffer": 0,
      "byteLength": 88416,
      "byteOffset": 86976,
      "byteStride": 12,
      "name": "floatBufferViews",
      "target": 34962
    },
    {
      "buffer": 0,
      "byteLength": 58944,
      "byteOffset": 175392,
      "byteStride": 16,
      "name": "floatBufferViews",
      "target": 34962
    }
  ],
  "buffers": [
    {
      "byteLength": 234336,
      "uri": "scene.bin"
    }
  ],
  "images": [
    {
      "uri": "textures/lambert1_baseColor.jpeg"
    },
    {
      "uri": "textures/lambert1_metallicRoughness.png"
    },
    {
      "uri": "textures/lambert1_normal.png"
    }
  ],
  "materials": [
    {
      "doubleSided": true,
      "name": "lambert1",
      "normalTexture": {
        "index": 2
      },
      "occlusionTexture": {
        "index": 1
      },
      "pbrMetallicRoughness": {
        "baseColorTexture": {
          "index": 0
        },
        "metallicRoughnessTexture": {
          "index": 1
        }
      }
    }
  ],
  "meshes": [
    {
      "name": "defaultMaterial",
      "primitives": [
        {
          "attributes": {
            "NORMAL": 1,
            "POSITION": 0,
            "TANGENT": 2,
            "TEXCOORD_0": 3
          },
          "indices": 4,
          "material": 0,
          "mode": 4
        }
      ]
    },
    {
      "name": "defaultMaterial",
      "primitives": [
        {
          "attributes": {
            "NORMAL": 6,
            "POSITION": 5,
            "TANGENT": 7,
            "TEXCOORD_0": 8
          },
          "indices": 9,
          "material": 0,
          "mode": 4
        }
      ]
    },
    {
      "name": "defaultMaterial",
      "primitives": [
        {
          "attributes": {
            "NORMAL": 11,
            "POSITION": 10,
            "TANGENT": 12,
            "TEXCOORD_0": 13
          },
          "indices": 14,
          "material": 0,
          "mode": 4
        }
      ]
    },
    {
      "name": "defaultMaterial",
      "primitives": [
        {
          "attributes": {
            "NORMAL": 16,
            "POSITION": 15,
            "TANGENT": 17,
            "TEXCOORD_0": 18
          },
          "indices": 19,
          "material": 0,
          "mode": 4
        }
      ]
    },
    {
      "name": "defaultMaterial",
      "primitives": [
        {
          "attributes": {
            "NORMAL": 21,
            "POSITION": 20,
            "TANGENT": 22,
            "TEXCOORD_0": 23
          },
          "indices": 24,
          "material": 0,
          "mode": 4
        }
      ]
    },
    {
      "name": "defaultMaterial",
      "primitives": [
        {
          "attributes": {
            "NORMAL": 26,
            "POSITION": 25,
            "TANGENT": 27,
            "TEXCOORD_0": 28
          },
          "indices": 29,
          "material": 0,
          "mode": 4
        }
      ]
    },
    {
      "name": "defaultMaterial",
      "primitives": [
        {
          "attributes": {
            "NORMAL": 31,
            "POSITION": 30,
            "TANGENT": 32,
            "TEXCOORD_0": 33
          },
          "indices": 34,
          "material": 0,
          "mode": 4
        }
      ]
    },
    {
      "name": "defaultMaterial",
      "primitives": [
        {
          "attributes": {
            "NORMAL": 36,
            "POSITION": 35,
            "TANGENT": 37,
            "TEXCOORD_0": 38
          },
          "indices": 39,
          "material": 0,
          "mode": 4
        }
      ]
    }
  ],
  "nodes": [
    {
      "children": [
        1
      ],
      "matrix": [
        1.0,
        0.0,
        0.0,
        0.0,
        0.0,
        2.220446049250313e-16,
        -1.0,
        0.0,
        0.0,
        1.0,
        2.220446049250313e-16,
        0.0,
        0.0,
        0.0,
        0.0,
        1.0
      ],
      "name": "Sketchfab_model"
    },
    {
      "children": [
        2,
        4,
        6,
        8,
        10,
        12,
        14,
        16
      ],
      "matrix": [
        1.0,
        0.0,
        0.0,
        0.0,
        0.0,
        -4.371139006309477e-08,
        0.999999999999999,
        0.0,
        0.0,
        -0.999999999999999,
        -4.371139006309477e-08,
        0.0,
        0.0,
        0.0,
        0.0,
        1.0
      ],
      "name": "Collada visual scene group"
    },
    {
      "children": [
        3
      ],
      "name": "pPipe7"
    },
    {
      "mesh": 0,
      "name": "defaultMaterial"
    },
    {
      "children": [
        5
      ],
      "name": "pCylinder2"
    },
    {
      "mesh": 1,
      "name": "defaultMaterial"
    },
    {
      "children": [
        7
      ],
      "name": "polySurface2"
    },
    {
      "mesh": 2,
      "name": "defaultMaterial"
    },
    {
      "children": [
        9
      ],
      "name": "polySurface1"
    },
    {
      "mesh": 3,
      "name": "defaultMaterial"
    },
    {
      "children": [
        11
      ],
      "name": "polySurface4"
    },
    {
      "mesh": 4,
      "name": "defaultMaterial"
    },
    {
      "children": [
        13
      ],
      "name": "polySurface3"
    },
    {
      "mesh": 5,
      "name": "defaultMaterial"
    },
    {
      "children": [
        15
      ],
      "name": "pPipe1"
    },
    {
      "mesh": 6,
      "name": "defaultMaterial"
    },
    {
      "children": [
        17
      ],
      "name": "pCylinder1"
    },
    {
      "mesh": 7,
      "name": "defaultMaterial"
    }
  ],
  "samplers": [
    {
      "magFilter": 9729,
      "minFilter": 9987,
      "wrapS": 10497,
      "wrapT": 10497
    }
  ],
  "scene": 0,
  "scenes": [
    {
      "name": "Sketchfab_Scene",
      "nodes": [
        0
      ]
    }
  ],
  "textures": [
    {
      "sampler": 0,
      "source": 0
    },
    {
      "sampler": 0,
      "source": 1
    },
    {
      "sampler": 0,
      "source": 2
    }
  ]
}
